<svg width="50" height="54" viewBox="0 0 50 54" fill="none" xmlns="http://www.w3.org/2000/svg">
<path d="M5.538 44.333C5.86733 44.385 6.16633 44.5193 6.435 44.736C6.71233 44.9527 6.929 45.2213 7.085 45.542C7.24967 45.8627 7.332 46.205 7.332 46.569C7.332 47.0283 7.215 47.4443 6.981 47.817C6.747 48.181 6.40467 48.4713 5.954 48.688C5.512 48.896 4.98767 49 4.381 49H1.001V39.939H4.251C4.86633 39.939 5.39067 40.043 5.824 40.251C6.25733 40.4503 6.58233 40.7233 6.799 41.07C7.01567 41.4167 7.124 41.8067 7.124 42.24C7.124 42.7773 6.97667 43.2237 6.682 43.579C6.396 43.9257 6.01467 44.177 5.538 44.333ZM2.184 43.852H4.173C4.72767 43.852 5.15667 43.722 5.46 43.462C5.76333 43.202 5.915 42.8423 5.915 42.383C5.915 41.9237 5.76333 41.564 5.46 41.304C5.15667 41.044 4.719 40.914 4.147 40.914H2.184V43.852ZM4.277 48.025C4.86633 48.025 5.32567 47.8863 5.655 47.609C5.98433 47.3317 6.149 46.946 6.149 46.452C6.149 45.9493 5.97567 45.555 5.629 45.269C5.28233 44.9743 4.81867 44.827 4.238 44.827H2.184V48.025H4.277ZM10.1307 39.939V45.672C10.1307 46.478 10.3257 47.076 10.7157 47.466C11.1143 47.856 11.6647 48.051 12.3667 48.051C13.06 48.051 13.6017 47.856 13.9917 47.466C14.3903 47.076 14.5897 46.478 14.5897 45.672V39.939H15.7727V45.659C15.7727 46.413 15.621 47.05 15.3177 47.57C15.0143 48.0813 14.6027 48.4627 14.0827 48.714C13.5713 48.9653 12.995 49.091 12.3537 49.091C11.7123 49.091 11.1317 48.9653 10.6117 48.714C10.1003 48.4627 9.69299 48.0813 9.38966 47.57C9.09499 47.05 8.94766 46.413 8.94766 45.659V39.939H10.1307ZM22.5171 49L20.3591 45.295H18.9291V49H17.7461V39.939H20.6711C21.3558 39.939 21.9321 40.056 22.4001 40.29C22.8768 40.524 23.2321 40.8403 23.4661 41.239C23.7001 41.6377 23.8171 42.0927 23.8171 42.604C23.8171 43.228 23.6351 43.7783 23.2711 44.255C22.9158 44.7317 22.3785 45.048 21.6591 45.204L23.9341 49H22.5171ZM18.9291 44.346H20.6711C21.3125 44.346 21.7935 44.19 22.1141 43.878C22.4348 43.5573 22.5951 43.1327 22.5951 42.604C22.5951 42.0667 22.4348 41.6507 22.1141 41.356C21.8021 41.0613 21.3211 40.914 20.6711 40.914H18.9291V44.346ZM32.5193 42.565C32.268 42.0363 31.904 41.629 31.4273 41.343C30.9506 41.0483 30.396 40.901 29.7633 40.901C29.1306 40.901 28.5586 41.0483 28.0473 41.343C27.5446 41.629 27.146 42.045 26.8513 42.591C26.5653 43.1283 26.4223 43.7523 26.4223 44.463C26.4223 45.1737 26.5653 45.7977 26.8513 46.335C27.146 46.8723 27.5446 47.2883 28.0473 47.583C28.5586 47.869 29.1306 48.012 29.7633 48.012C30.6473 48.012 31.3753 47.7477 31.9473 47.219C32.5193 46.6903 32.853 45.9753 32.9483 45.074H29.3343V44.112H34.2093V45.022C34.14 45.7673 33.906 46.452 33.5073 47.076C33.1086 47.6913 32.5843 48.181 31.9343 48.545C31.2843 48.9003 30.5606 49.078 29.7633 49.078C28.9226 49.078 28.1556 48.883 27.4623 48.493C26.769 48.0943 26.2186 47.544 25.8113 46.842C25.4126 46.14 25.2133 45.347 25.2133 44.463C25.2133 43.579 25.4126 42.786 25.8113 42.084C26.2186 41.3733 26.769 40.823 27.4623 40.433C28.1556 40.0343 28.9226 39.835 29.7633 39.835C30.7253 39.835 31.5746 40.0733 32.3113 40.55C33.0566 41.0267 33.5983 41.6983 33.9363 42.565H32.5193ZM36.9565 40.901V43.93H40.2585V44.905H36.9565V48.025H40.6485V49H35.7735V39.926H40.6485V40.901H36.9565ZM47.2095 49L45.0515 45.295H43.6215V49H42.4385V39.939H45.3635C46.0482 39.939 46.6245 40.056 47.0925 40.29C47.5692 40.524 47.9245 40.8403 48.1585 41.239C48.3925 41.6377 48.5095 42.0927 48.5095 42.604C48.5095 43.228 48.3275 43.7783 47.9635 44.255C47.6082 44.7317 47.0708 45.048 46.3515 45.204L48.6265 49H47.2095ZM43.6215 44.346H45.3635C46.0048 44.346 46.4858 44.19 46.8065 43.878C47.1272 43.5573 47.2875 43.1327 47.2875 42.604C47.2875 42.0667 47.1272 41.6507 46.8065 41.356C46.4945 41.0613 46.0135 40.914 45.3635 40.914H43.6215V44.346Z" fill="#242424"/>
<path d="M29.5 18.1875L34.5685 12.9078C34.864 12.6001 35.2148 12.356 35.6008 12.1895C35.9869 12.023 36.4007 11.9374 36.8185 11.9375H37C37.7956 11.9375 38.5587 12.2667 39.1213 12.8528C39.6839 13.4388 40 14.2337 40 15.0625C40 15.8913 39.6839 16.6862 39.1213 17.2722C38.5587 17.8583 37.7956 18.1875 37 18.1875H13C12.2044 18.1875 11.4413 17.8583 10.8787 17.2722C10.3161 16.6862 10 15.8913 10 15.0625C10 14.2337 10.3161 13.4388 10.8787 12.8528C11.4413 12.2667 12.2044 11.9375 13 11.9375H19.7725C22.159 11.9376 24.4478 12.9251 26.1355 14.6828L29.5 18.1875ZM11.5 18.1875H38.5V21.3125C38.5 22.5557 38.0259 23.748 37.182 24.6271C36.3381 25.5061 35.1935 26 34 26H16C14.8065 26 13.6619 25.5061 12.818 24.6271C11.9741 23.748 11.5 22.5557 11.5 21.3125V18.1875Z" stroke="#242424" stroke-width="2" stroke-linecap="round" stroke-linejoin="round"/>
<path d="M25.0014 7.25H24.9999M24.9999 1C18.0654 1 12.3519 3.74375 11.5869 10.375C11.4879 11.2344 12.1719 11.9375 12.9999 11.9375H36.9999C37.8279 11.9375 38.5119 11.2344 38.4129 10.375C37.6479 3.74375 31.9344 1 24.9999 1ZM17.5014 7.25H17.4999H17.5014ZM29.5014 5.6875H29.4999H29.5014Z" stroke="#242424" stroke-width="2" stroke-linecap="round" stroke-linejoin="round"/>
</svg>
