<svg width="38" height="52" viewBox="0 0 38 52" fill="none" xmlns="http://www.w3.org/2000/svg">
<path d="M3.822 37.939C4.81 37.939 5.66367 38.1253 6.383 38.498C7.111 38.862 7.66567 39.3863 8.047 40.071C8.437 40.7557 8.632 41.5617 8.632 42.489C8.632 43.4163 8.437 44.2223 8.047 44.907C7.66567 45.583 7.111 46.103 6.383 46.467C5.66367 46.8223 4.81 47 3.822 47H1.001V37.939H3.822ZM3.822 46.025C4.992 46.025 5.88467 45.7173 6.5 45.102C7.11533 44.478 7.423 43.607 7.423 42.489C7.423 41.3623 7.111 40.4827 6.487 39.85C5.87167 39.2173 4.98333 38.901 3.822 38.901H2.184V46.025H3.822ZM14.9634 47L12.8054 43.295H11.3754V47H10.1924V37.939H13.1174C13.8021 37.939 14.3784 38.056 14.8464 38.29C15.3231 38.524 15.6784 38.8403 15.9124 39.239C16.1464 39.6377 16.2634 40.0927 16.2634 40.604C16.2634 41.228 16.0814 41.7783 15.7174 42.255C15.3621 42.7317 14.8247 43.048 14.1054 43.204L16.3804 47H14.9634ZM11.3754 42.346H13.1174C13.7587 42.346 14.2397 42.19 14.5604 41.878C14.8811 41.5573 15.0414 41.1327 15.0414 40.604C15.0414 40.0667 14.8811 39.6507 14.5604 39.356C14.2484 39.0613 13.7674 38.914 13.1174 38.914H11.3754V42.346ZM19.2846 37.939V47H18.1016V37.939H19.2846ZM28.4248 47H27.2418L22.4838 39.785V47H21.3008V37.926H22.4838L27.2418 45.128V37.926H28.4248V47ZM35.3554 47L31.6244 42.866V47H30.4414V37.939H31.6244V42.138L35.3684 37.939H36.8634L32.7554 42.476L36.9024 47H35.3554Z" fill="#242424"/>
<path d="M26.5 1.875C27.3265 1.87585 28.1427 2.05883 28.8905 2.41094C29.6383 2.76305 30.2993 3.27562 30.8265 3.91221C31.3537 4.54879 31.7341 5.29373 31.9407 6.09403C32.1473 6.89434 32.175 7.73034 32.0218 8.54255C31.8686 9.35477 31.5383 10.1233 31.0544 10.7933C30.5705 11.4634 29.9448 12.0186 29.222 12.4194C28.4991 12.8202 27.6968 13.0568 26.8721 13.1123C26.0475 13.1678 25.2207 13.0409 24.4506 12.7406L18.0625 21.2513V26.25H20.875C21.1236 26.25 21.3621 26.3488 21.5379 26.5246C21.7137 26.7004 21.8125 26.9389 21.8125 27.1875C21.8125 27.4361 21.7137 27.6746 21.5379 27.8504C21.3621 28.0262 21.1236 28.125 20.875 28.125H13.375C13.1264 28.125 12.8879 28.0262 12.7121 27.8504C12.5363 27.6746 12.4375 27.4361 12.4375 27.1875C12.4375 26.9389 12.5363 26.7004 12.7121 26.5246C12.8879 26.3488 13.1264 26.25 13.375 26.25H16.1875V21.2513L6.25 8.01375C6.00658 7.6892 5.875 7.29445 5.875 6.88875V6.57563C5.875 6.32699 5.97377 6.08853 6.14959 5.91272C6.3254 5.7369 6.56386 5.63813 6.8125 5.63813H8.91625L6.99625 3.18188C6.84309 2.98595 6.77403 2.7372 6.80427 2.49036C6.83451 2.24351 6.96157 2.01879 7.1575 1.86563C7.35343 1.71247 7.60218 1.64341 7.84902 1.67365C8.09587 1.70389 8.32059 1.83095 8.47375 2.02688L11.2937 5.63813H21.1881C21.5744 4.53775 22.293 3.58458 23.2446 2.91043C24.1962 2.23628 25.3338 1.87446 26.5 1.875ZM23.245 5.63813H27.4375C27.6861 5.63813 27.9246 5.7369 28.1004 5.91272C28.2762 6.08853 28.375 6.32699 28.375 6.57563V6.88688C28.375 7.29257 28.2434 7.68732 28 8.01188L25.6431 11.1525C26.3203 11.3112 27.0283 11.2784 27.688 11.0577C28.3476 10.8371 28.9329 10.4374 29.3784 9.90327C29.8239 9.36912 30.112 8.72159 30.2107 8.03307C30.3093 7.34455 30.2145 6.64217 29.9368 6.00444C29.6592 5.36671 29.2096 4.81877 28.6384 4.42186C28.0673 4.02496 27.3969 3.79473 26.7024 3.75692C26.0079 3.71911 25.3165 3.8752 24.7056 4.20774C24.0947 4.54029 23.5884 5.03619 23.2431 5.64V5.63813H23.245ZM12.76 7.51313L16.5531 12.3694C16.6976 12.5659 16.7598 12.8111 16.7264 13.0528C16.6931 13.2944 16.5669 13.5136 16.3745 13.6637C16.1822 13.8138 15.939 13.883 15.6964 13.8566C15.4539 13.8303 15.2312 13.7104 15.0756 13.5225L10.3806 7.51313H8.21875L17.125 19.3763L26.0312 7.51313H12.76Z" fill="#242424"/>
</svg>
