<svg width="35" height="55" viewBox="0 0 35 55" fill="none" xmlns="http://www.w3.org/2000/svg">
<path d="M10.9194 13.4444C11.3115 13.4444 11.6875 13.2868 11.9648 13.0064C12.242 12.7259 12.3978 12.3455 12.3978 11.9489C12.3978 11.5522 12.242 11.1719 11.9648 10.8914C11.6875 10.6109 11.3115 10.4534 10.9194 10.4534C10.5273 10.4534 10.1513 10.6109 9.87405 10.8914C9.5968 11.1719 9.44105 11.5522 9.44105 11.9489C9.44105 12.3455 9.5968 12.7259 9.87405 13.0064C10.1513 13.2868 10.5273 13.4444 10.9194 13.4444ZM18.3113 16.4324C18.3113 16.8291 18.1556 17.2095 17.8783 17.4899C17.6011 17.7704 17.225 17.9279 16.8329 17.9279C16.4408 17.9279 16.0648 17.7704 15.7876 17.4899C15.5103 17.2095 15.3546 16.8291 15.3546 16.4324C15.3546 16.0358 15.5103 15.6554 15.7876 15.3749C16.0648 15.0945 16.4408 14.9369 16.8329 14.9369C17.225 14.9369 17.6011 15.0945 17.8783 15.3749C18.1556 15.6554 18.3113 16.0358 18.3113 16.4324ZM10.9194 22.4115C11.3115 22.4115 11.6875 22.2539 11.9648 21.9735C12.242 21.693 12.3978 21.3126 12.3978 20.916C12.3978 20.5193 12.242 20.139 11.9648 19.8585C11.6875 19.578 11.3115 19.4205 10.9194 19.4205C10.5273 19.4205 10.1513 19.578 9.87405 19.8585C9.5968 20.139 9.44105 20.5193 9.44105 20.916C9.44105 21.3126 9.5968 21.693 9.87405 21.9735C10.1513 22.2539 10.5273 22.4115 10.9194 22.4115ZM5.00591 3.9778C5.00591 1.74051 6.82432 -0.215619 9.17494 0.0191764C16.8289 0.786223 23.92 4.42946 29.0473 10.229C30.6291 12.0132 30.1368 14.6617 28.3391 15.9793C25.7349 17.8889 23.1314 19.7996 20.5289 21.7116C20.5259 22.3651 20.5259 22.7899 20.5274 23.3432V24.2839C20.5276 24.6664 20.4449 25.0444 20.2851 25.3911C20.1253 25.7378 19.8923 26.0449 19.6026 26.2907C19.3128 26.5365 18.9732 26.7151 18.6079 26.8138C18.2425 26.9125 17.8602 26.929 17.4879 26.8621C17.1863 28.0974 16.11 29.1458 14.6139 29.1458C13.579 29.1458 12.7482 28.6448 12.2352 27.9269L10.2763 29.3567C8.0765 30.9643 4.99852 29.3746 5 26.6273L5.00591 3.9778ZM8.95614 2.25198C8.05581 2.16225 7.22052 2.91449 7.22052 3.98079V4.75846C10.9318 4.91539 14.5665 5.8771 17.8785 7.57846C21.1904 9.27983 24.1024 11.6812 26.4172 14.6199L27.0367 14.1652C27.8912 13.5371 28.0006 12.411 27.3945 11.7275C22.638 6.34585 16.0591 2.96463 8.95762 2.25198H8.95614ZM7.21609 26.6288C7.21609 27.5456 8.24208 28.0765 8.97536 27.5411L12.1213 25.2455C12.2871 25.1249 12.4826 25.0529 12.6862 25.0375C12.8898 25.0221 13.0937 25.0638 13.2753 25.1582C13.457 25.2525 13.6093 25.3958 13.7156 25.5722C13.8219 25.7486 13.878 25.9512 13.8777 26.1578C13.8777 26.5615 14.1866 26.9055 14.6124 26.9055C14.7099 26.9065 14.8066 26.8879 14.8969 26.8507C14.9872 26.8135 15.0693 26.7585 15.1383 26.6889C15.2074 26.6193 15.2621 26.5365 15.2992 26.4453C15.3363 26.3541 15.3551 26.2564 15.3546 26.1578V24.2809C15.3546 23.9834 15.4714 23.6981 15.6793 23.4878C15.8872 23.2774 16.1693 23.1592 16.4633 23.1592C16.7574 23.1592 17.0394 23.2774 17.2474 23.4878C17.4553 23.6981 17.5721 23.9834 17.5721 24.2809C17.5721 24.4917 17.7362 24.6563 17.9388 24.6563C18.0368 24.6563 18.1308 24.6169 18.2001 24.5467C18.2694 24.4766 18.3084 24.3815 18.3084 24.2824V23.3522C18.3069 22.6493 18.3054 22.1438 18.3157 21.1253C18.3171 20.9502 18.359 20.7778 18.4381 20.622C18.5172 20.4662 18.6312 20.3313 18.7711 20.228C20.1046 19.247 22.4611 17.5182 24.6195 15.9359C22.5117 13.2833 19.87 11.1147 16.8699 9.57433C13.8697 8.03394 10.58 7.15699 7.21904 7.00173V26.6288H7.21609Z" fill="white"/>
<path d="M7.293 43.656C7.293 44.1153 7.18467 44.5487 6.968 44.956C6.75133 45.3633 6.40467 45.697 5.928 45.957C5.45133 46.2083 4.84033 46.334 4.095 46.334H2.457V50H0.975V40.965H4.095C4.78833 40.965 5.37333 41.0863 5.85 41.329C6.33533 41.563 6.695 41.8837 6.929 42.291C7.17167 42.6983 7.293 43.1533 7.293 43.656ZM4.095 45.125C4.65833 45.125 5.07867 44.9993 5.356 44.748C5.63333 44.488 5.772 44.124 5.772 43.656C5.772 42.668 5.213 42.174 4.095 42.174H2.457V45.125H4.095ZM10.1884 40.965V50H8.70645V40.965H10.1884ZM13.5642 48.713H17.7632V50H11.8092V48.843L15.9952 42.252H11.8092V40.965H17.7632V42.122L13.5642 48.713ZM20.8132 48.713H25.0122V50H19.0582V48.843L23.2442 42.252H19.0582V40.965H25.0122V42.122L20.8132 48.713ZM32.0792 48.154H28.2962L27.6462 50H26.0992L29.3362 40.952H31.0522L34.2892 50H32.7292L32.0792 48.154ZM31.6632 46.945L30.1942 42.746L28.7122 46.945H31.6632Z" fill="white"/>
</svg>
